<svg width="440" height="217" viewBox="0 0 440 217" fill="none" xmlns="http://www.w3.org/2000/svg">
<g clip-path="url(#clip0_501_313)">
<g filter="url(#filter0_dddd_501_313)">
<path d="M244 74.4641C247.713 72.3205 252.287 72.3205 256 74.4641L280.373 88.5359C284.086 90.6795 286.373 94.641 286.373 98.9282V127.072C286.373 131.359 284.086 135.321 280.373 137.464L256 151.536C252.287 153.679 247.713 153.679 244 151.536L219.627 137.464C215.914 135.321 213.627 131.359 213.627 127.072V98.9282C213.627 94.641 215.914 90.6795 219.627 88.5359L244 74.4641Z" fill="#F9F9F9"/>
<path d="M244.125 74.6807C247.76 72.5817 252.24 72.5817 255.875 74.6807L280.248 88.752C283.883 90.8508 286.123 94.73 286.123 98.9277V127.072C286.123 131.27 283.883 135.149 280.248 137.248L255.875 151.319C252.24 153.418 247.76 153.418 244.125 151.319L219.752 137.248C216.117 135.149 213.877 131.27 213.877 127.072V98.9277C213.877 94.73 216.117 90.8508 219.752 88.752L244.125 74.6807Z" stroke="#E5E5E5" stroke-width="0.5"/>
</g>
<g filter="url(#filter1_i_501_313)">
<path d="M160 74.4641C163.713 72.3205 168.287 72.3205 172 74.4641L196.373 88.5359C200.086 90.6795 202.373 94.641 202.373 98.9282V127.072C202.373 131.359 200.086 135.321 196.373 137.464L172 151.536C168.287 153.679 163.713 153.679 160 151.536L135.627 137.464C131.914 135.321 129.627 131.359 129.627 127.072V98.9282C129.627 94.641 131.914 90.6795 135.627 88.5359L160 74.4641Z" fill="#F5F5F5"/>
</g>
<path d="M160.125 74.6807C163.76 72.5817 168.24 72.5817 171.875 74.6807L196.248 88.752C199.883 90.8508 202.123 94.73 202.123 98.9277V127.072C202.123 131.27 199.883 135.149 196.248 137.248L171.875 151.319C168.24 153.418 163.76 153.418 160.125 151.319L135.752 137.248C132.117 135.149 129.877 131.27 129.877 127.072V98.9277C129.877 94.73 132.117 90.8508 135.752 88.752L160.125 74.6807Z" stroke="#E5E5E5" stroke-width="0.5"/>
<path d="M77.125 74.6807C80.7605 72.5817 85.2395 72.5817 88.875 74.6807L113.248 88.752C116.883 90.8508 119.123 94.73 119.123 98.9277V127.072C119.123 131.27 116.883 135.149 113.248 137.248L88.875 151.319C85.2395 153.418 80.7605 153.418 77.125 151.319L52.752 137.248C49.1166 135.149 46.8771 131.27 46.877 127.072V98.9277C46.8771 94.73 49.1166 90.8508 52.752 88.752L77.125 74.6807Z" stroke="#E5E5E5" stroke-width="0.5"/>
<g filter="url(#filter2_dddd_501_313)">
<path d="M327 74.4641C330.713 72.3205 335.287 72.3205 339 74.4641L363.373 88.5359C367.086 90.6795 369.373 94.641 369.373 98.9282V127.072C369.373 131.359 367.086 135.321 363.373 137.464L339 151.536C335.287 153.679 330.713 153.679 327 151.536L302.627 137.464C298.914 135.321 296.627 131.359 296.627 127.072V98.9282C296.627 94.641 298.914 90.6795 302.627 88.5359L327 74.4641Z" fill="#FAFAFA"/>
<path d="M327.125 74.6807C330.76 72.5817 335.24 72.5817 338.875 74.6807L363.248 88.752C366.883 90.8508 369.123 94.73 369.123 98.9277V127.072C369.123 131.27 366.883 135.149 363.248 137.248L338.875 151.319C335.24 153.418 330.76 153.418 327.125 151.319L302.752 137.248C299.117 135.149 296.877 131.27 296.877 127.072V98.9277C296.877 94.73 299.117 90.8508 302.752 88.752L327.125 74.6807Z" stroke="#E5E5E5" stroke-width="0.5"/>
</g>
<g filter="url(#filter3_i_501_313)">
<path d="M410 74.4641C413.713 72.3205 418.287 72.3205 422 74.4641L446.373 88.5359C450.086 90.6795 452.373 94.641 452.373 98.9282V127.072C452.373 131.359 450.086 135.321 446.373 137.464L422 151.536C418.287 153.679 413.713 153.679 410 151.536L385.627 137.464C381.914 135.321 379.627 131.359 379.627 127.072V98.9282C379.627 94.641 381.914 90.6795 385.627 88.5359L410 74.4641Z" fill="#F5F5F5"/>
</g>
<path d="M410.125 74.6807C413.76 72.5817 418.24 72.5817 421.875 74.6807L446.248 88.752C449.883 90.8508 452.123 94.73 452.123 98.9277V127.072C452.123 131.27 449.883 135.149 446.248 137.248L421.875 151.319C418.24 153.418 413.76 153.418 410.125 151.319L385.752 137.248C382.117 135.149 379.877 131.27 379.877 127.072V98.9277C379.877 94.73 382.117 90.8508 385.752 88.752L410.125 74.6807Z" stroke="#E5E5E5" stroke-width="0.5"/>
<g filter="url(#filter4_i_501_313)">
<path d="M367 145.464C370.713 143.321 375.287 143.321 379 145.464L403.373 159.536C407.086 161.679 409.373 165.641 409.373 169.928V198.072C409.373 202.359 407.086 206.321 403.373 208.464L379 222.536C375.287 224.679 370.713 224.679 367 222.536L342.627 208.464C338.914 206.321 336.627 202.359 336.627 198.072V169.928C336.627 165.641 338.914 161.679 342.627 159.536L367 145.464Z" fill="#F5F5F5"/>
</g>
<path d="M367.125 145.681C370.76 143.582 375.24 143.582 378.875 145.681L403.248 159.752C406.883 161.851 409.123 165.73 409.123 169.928V198.072C409.123 202.27 406.883 206.149 403.248 208.248L378.875 222.319C375.24 224.418 370.76 224.418 367.125 222.319L342.752 208.248C339.117 206.149 336.877 202.27 336.877 198.072V169.928C336.877 165.73 339.117 161.851 342.752 159.752L367.125 145.681Z" stroke="#E5E5E5" stroke-width="0.5"/>
<g filter="url(#filter5_dddddd_501_313)">
<path d="M367 3.4641C370.713 1.32051 375.287 1.32051 379 3.4641L403.373 17.5359C407.086 19.6795 409.373 23.641 409.373 27.9282V56.0718C409.373 60.359 407.086 64.3205 403.373 66.4641L379 80.5359C375.287 82.6795 370.713 82.6795 367 80.5359L342.627 66.4641C338.914 64.3205 336.627 60.359 336.627 56.0718V27.9282C336.627 23.641 338.914 19.6795 342.627 17.5359L367 3.4641Z" fill="white"/>
<path d="M367.125 3.68066C370.76 1.58173 375.24 1.58173 378.875 3.68066L403.248 17.752C406.883 19.8508 409.123 23.73 409.123 27.9277V56.0723C409.123 60.27 406.883 64.1492 403.248 66.248L378.875 80.3193C375.24 82.4183 370.76 82.4183 367.125 80.3193L342.752 66.248C339.117 64.1492 336.877 60.27 336.877 56.0723V27.9277C336.877 23.73 339.117 19.8508 342.752 17.752L367.125 3.68066Z" stroke="#E5E5E5" stroke-width="0.5"/>
</g>
<g filter="url(#filter6_i_501_313)">
<path d="M285 145.464C288.713 143.321 293.287 143.321 297 145.464L321.373 159.536C325.086 161.679 327.373 165.641 327.373 169.928V198.072C327.373 202.359 325.086 206.321 321.373 208.464L297 222.536C293.287 224.679 288.713 224.679 285 222.536L260.627 208.464C256.914 206.321 254.627 202.359 254.627 198.072V169.928C254.627 165.641 256.914 161.679 260.627 159.536L285 145.464Z" fill="#F5F5F5"/>
</g>
<path d="M285.125 145.681C288.76 143.582 293.24 143.582 296.875 145.681L321.248 159.752C324.883 161.851 327.123 165.73 327.123 169.928V198.072C327.123 202.27 324.883 206.149 321.248 208.248L296.875 222.319C293.24 224.418 288.76 224.418 285.125 222.319L260.752 208.248C257.117 206.149 254.877 202.27 254.877 198.072V169.928C254.877 165.73 257.117 161.851 260.752 159.752L285.125 145.681Z" stroke="#E5E5E5" stroke-width="0.5"/>
<g filter="url(#filter7_i_501_313)">
<path d="M285 3.4641C288.713 1.32051 293.287 1.32051 297 3.4641L321.373 17.5359C325.086 19.6795 327.373 23.641 327.373 27.9282V56.0718C327.373 60.359 325.086 64.3205 321.373 66.4641L297 80.5359C293.287 82.6795 288.713 82.6795 285 80.5359L260.627 66.4641C256.914 64.3205 254.627 60.359 254.627 56.0718V27.9282C254.627 23.641 256.914 19.6795 260.627 17.5359L285 3.4641Z" fill="#F5F5F5"/>
</g>
<path d="M285.125 3.68066C288.76 1.58173 293.24 1.58173 296.875 3.68066L321.248 17.752C324.883 19.8508 327.123 23.73 327.123 27.9277V56.0723C327.123 60.27 324.883 64.1492 321.248 66.248L296.875 80.3193C293.24 82.4183 288.76 82.4183 285.125 80.3193L260.752 66.248C257.117 64.1492 254.877 60.27 254.877 56.0723V27.9277C254.877 23.73 257.117 19.8508 260.752 17.752L285.125 3.68066Z" stroke="#E5E5E5" stroke-width="0.5"/>
<g filter="url(#filter8_i_501_313)">
<path d="M119 145.464C122.713 143.321 127.287 143.321 131 145.464L155.373 159.536C159.086 161.679 161.373 165.641 161.373 169.928V198.072C161.373 202.359 159.086 206.321 155.373 208.464L131 222.536C127.287 224.679 122.713 224.679 119 222.536L94.6269 208.464C90.9141 206.321 88.6269 202.359 88.6269 198.072V169.928C88.6269 165.641 90.9141 161.679 94.6269 159.536L119 145.464Z" fill="#F5F5F5"/>
</g>
<path d="M119.125 145.681C122.76 143.582 127.24 143.582 130.875 145.681L155.248 159.752C158.883 161.851 161.123 165.73 161.123 169.928V198.072C161.123 202.27 158.883 206.149 155.248 208.248L130.875 222.319C127.24 224.418 122.76 224.418 119.125 222.319L94.752 208.248C91.1166 206.149 88.8771 202.27 88.877 198.072V169.928C88.8771 165.73 91.1166 161.851 94.752 159.752L119.125 145.681Z" stroke="#E5E5E5" stroke-width="0.5"/>
<g filter="url(#filter9_i_501_313)">
<path d="M202 145.464C205.713 143.321 210.287 143.321 214 145.464L238.373 159.536C242.086 161.679 244.373 165.641 244.373 169.928V198.072C244.373 202.359 242.086 206.321 238.373 208.464L214 222.536C210.287 224.679 205.713 224.679 202 222.536L177.627 208.464C173.914 206.321 171.627 202.359 171.627 198.072V169.928C171.627 165.641 173.914 161.679 177.627 159.536L202 145.464Z" fill="#F5F5F5"/>
</g>
<path d="M202.125 145.681C205.76 143.582 210.24 143.582 213.875 145.681L238.248 159.752C241.883 161.851 244.123 165.73 244.123 169.928V198.072C244.123 202.27 241.883 206.149 238.248 208.248L213.875 222.319C210.24 224.418 205.76 224.418 202.125 222.319L177.752 208.248C174.117 206.149 171.877 202.27 171.877 198.072V169.928C171.877 165.73 174.117 161.851 177.752 159.752L202.125 145.681Z" stroke="#E5E5E5" stroke-width="0.5"/>
<path d="M36.125 145.681C39.7605 143.582 44.2395 143.582 47.875 145.681L72.248 159.752C75.8834 161.851 78.1229 165.73 78.123 169.928V198.072C78.1229 202.27 75.8834 206.149 72.248 208.248L47.875 222.319C44.2395 224.418 39.7605 224.418 36.125 222.319L11.752 208.248C8.11663 206.149 5.87712 202.27 5.87695 198.072V169.928C5.87712 165.73 8.11663 161.851 11.752 159.752L36.125 145.681Z" stroke="#E5E5E5" stroke-width="0.5"/>
</g>
<defs>
<filter id="filter0_dddd_501_313" x="212.627" y="72.8555" width="80.7461" height="93.2891" filterUnits="userSpaceOnUse" color-interpolation-filters="sRGB">
<feFlood flood-opacity="0" result="BackgroundImageFix"/>
<feColorMatrix in="SourceAlpha" type="matrix" values="0 0 0 0 0 0 0 0 0 0 0 0 0 0 0 0 0 0 127 0" result="hardAlpha"/>
<feOffset dy="1"/>
<feGaussianBlur stdDeviation="0.5"/>
<feColorMatrix type="matrix" values="0 0 0 0 0.439216 0 0 0 0 0.439216 0 0 0 0 0.439216 0 0 0 0.1 0"/>
<feBlend mode="normal" in2="BackgroundImageFix" result="effect1_dropShadow_501_313"/>
<feColorMatrix in="SourceAlpha" type="matrix" values="0 0 0 0 0 0 0 0 0 0 0 0 0 0 0 0 0 0 127 0" result="hardAlpha"/>
<feOffset dx="1" dy="2"/>
<feGaussianBlur stdDeviation="1"/>
<feColorMatrix type="matrix" values="0 0 0 0 0.439216 0 0 0 0 0.439216 0 0 0 0 0.439216 0 0 0 0.09 0"/>
<feBlend mode="normal" in2="effect1_dropShadow_501_313" result="effect2_dropShadow_501_313"/>
<feColorMatrix in="SourceAlpha" type="matrix" values="0 0 0 0 0 0 0 0 0 0 0 0 0 0 0 0 0 0 127 0" result="hardAlpha"/>
<feOffset dx="2" dy="5"/>
<feGaussianBlur stdDeviation="1.5"/>
<feColorMatrix type="matrix" values="0 0 0 0 0.439216 0 0 0 0 0.439216 0 0 0 0 0.439216 0 0 0 0.05 0"/>
<feBlend mode="normal" in2="effect2_dropShadow_501_313" result="effect3_dropShadow_501_313"/>
<feColorMatrix in="SourceAlpha" type="matrix" values="0 0 0 0 0 0 0 0 0 0 0 0 0 0 0 0 0 0 127 0" result="hardAlpha"/>
<feOffset dx="3" dy="9"/>
<feGaussianBlur stdDeviation="2"/>
<feColorMatrix type="matrix" values="0 0 0 0 0.439216 0 0 0 0 0.439216 0 0 0 0 0.439216 0 0 0 0.01 0"/>
<feBlend mode="normal" in2="effect3_dropShadow_501_313" result="effect4_dropShadow_501_313"/>
<feBlend mode="normal" in="SourceGraphic" in2="effect4_dropShadow_501_313" result="shape"/>
</filter>
<filter id="filter1_i_501_313" x="129.627" y="72.8555" width="72.7461" height="82.2891" filterUnits="userSpaceOnUse" color-interpolation-filters="sRGB">
<feFlood flood-opacity="0" result="BackgroundImageFix"/>
<feBlend mode="normal" in="SourceGraphic" in2="BackgroundImageFix" result="shape"/>
<feColorMatrix in="SourceAlpha" type="matrix" values="0 0 0 0 0 0 0 0 0 0 0 0 0 0 0 0 0 0 127 0" result="hardAlpha"/>
<feOffset dy="2"/>
<feGaussianBlur stdDeviation="4"/>
<feComposite in2="hardAlpha" operator="arithmetic" k2="-1" k3="1"/>
<feColorMatrix type="matrix" values="0 0 0 0 1 0 0 0 0 1 0 0 0 0 1 0 0 0 1 0"/>
<feBlend mode="normal" in2="shape" result="effect1_innerShadow_501_313"/>
</filter>
<filter id="filter2_dddd_501_313" x="292.627" y="70.8555" width="90.7461" height="108.289" filterUnits="userSpaceOnUse" color-interpolation-filters="sRGB">
<feFlood flood-opacity="0" result="BackgroundImageFix"/>
<feColorMatrix in="SourceAlpha" type="matrix" values="0 0 0 0 0 0 0 0 0 0 0 0 0 0 0 0 0 0 127 0" result="hardAlpha"/>
<feOffset dy="1"/>
<feGaussianBlur stdDeviation="1.5"/>
<feColorMatrix type="matrix" values="0 0 0 0 0.439216 0 0 0 0 0.439216 0 0 0 0 0.439216 0 0 0 0.1 0"/>
<feBlend mode="normal" in2="BackgroundImageFix" result="effect1_dropShadow_501_313"/>
<feColorMatrix in="SourceAlpha" type="matrix" values="0 0 0 0 0 0 0 0 0 0 0 0 0 0 0 0 0 0 127 0" result="hardAlpha"/>
<feOffset dx="1" dy="4"/>
<feGaussianBlur stdDeviation="2.5"/>
<feColorMatrix type="matrix" values="0 0 0 0 0.439216 0 0 0 0 0.439216 0 0 0 0 0.439216 0 0 0 0.09 0"/>
<feBlend mode="normal" in2="effect1_dropShadow_501_313" result="effect2_dropShadow_501_313"/>
<feColorMatrix in="SourceAlpha" type="matrix" values="0 0 0 0 0 0 0 0 0 0 0 0 0 0 0 0 0 0 127 0" result="hardAlpha"/>
<feOffset dx="3" dy="10"/>
<feGaussianBlur stdDeviation="3"/>
<feColorMatrix type="matrix" values="0 0 0 0 0.439216 0 0 0 0 0.439216 0 0 0 0 0.439216 0 0 0 0.05 0"/>
<feBlend mode="normal" in2="effect2_dropShadow_501_313" result="effect3_dropShadow_501_313"/>
<feColorMatrix in="SourceAlpha" type="matrix" values="0 0 0 0 0 0 0 0 0 0 0 0 0 0 0 0 0 0 127 0" result="hardAlpha"/>
<feOffset dx="6" dy="18"/>
<feGaussianBlur stdDeviation="4"/>
<feColorMatrix type="matrix" values="0 0 0 0 0.439216 0 0 0 0 0.439216 0 0 0 0 0.439216 0 0 0 0.01 0"/>
<feBlend mode="normal" in2="effect3_dropShadow_501_313" result="effect4_dropShadow_501_313"/>
<feBlend mode="normal" in="SourceGraphic" in2="effect4_dropShadow_501_313" result="shape"/>
</filter>
<filter id="filter3_i_501_313" x="379.627" y="72.8555" width="72.7461" height="82.2891" filterUnits="userSpaceOnUse" color-interpolation-filters="sRGB">
<feFlood flood-opacity="0" result="BackgroundImageFix"/>
<feBlend mode="normal" in="SourceGraphic" in2="BackgroundImageFix" result="shape"/>
<feColorMatrix in="SourceAlpha" type="matrix" values="0 0 0 0 0 0 0 0 0 0 0 0 0 0 0 0 0 0 127 0" result="hardAlpha"/>
<feOffset dy="2"/>
<feGaussianBlur stdDeviation="4"/>
<feComposite in2="hardAlpha" operator="arithmetic" k2="-1" k3="1"/>
<feColorMatrix type="matrix" values="0 0 0 0 1 0 0 0 0 1 0 0 0 0 1 0 0 0 1 0"/>
<feBlend mode="normal" in2="shape" result="effect1_innerShadow_501_313"/>
</filter>
<filter id="filter4_i_501_313" x="336.627" y="143.855" width="72.7461" height="82.2891" filterUnits="userSpaceOnUse" color-interpolation-filters="sRGB">
<feFlood flood-opacity="0" result="BackgroundImageFix"/>
<feBlend mode="normal" in="SourceGraphic" in2="BackgroundImageFix" result="shape"/>
<feColorMatrix in="SourceAlpha" type="matrix" values="0 0 0 0 0 0 0 0 0 0 0 0 0 0 0 0 0 0 127 0" result="hardAlpha"/>
<feOffset dy="2"/>
<feGaussianBlur stdDeviation="4"/>
<feComposite in2="hardAlpha" operator="arithmetic" k2="-1" k3="1"/>
<feColorMatrix type="matrix" values="0 0 0 0 1 0 0 0 0 1 0 0 0 0 1 0 0 0 1 0"/>
<feBlend mode="normal" in2="shape" result="effect1_innerShadow_501_313"/>
</filter>
<filter id="filter5_dddddd_501_313" x="321.627" y="-13.1445" width="114.746" height="146.289" filterUnits="userSpaceOnUse" color-interpolation-filters="sRGB">
<feFlood flood-opacity="0" result="BackgroundImageFix"/>
<feColorMatrix in="SourceAlpha" type="matrix" values="0 0 0 0 0 0 0 0 0 0 0 0 0 0 0 0 0 0 127 0" result="hardAlpha"/>
<feOffset dx="1" dy="2"/>
<feGaussianBlur stdDeviation="2.5"/>
<feColorMatrix type="matrix" values="0 0 0 0 0.439216 0 0 0 0 0.439216 0 0 0 0 0.439216 0 0 0 0.1 0"/>
<feBlend mode="normal" in2="BackgroundImageFix" result="effect1_dropShadow_501_313"/>
<feColorMatrix in="SourceAlpha" type="matrix" values="0 0 0 0 0 0 0 0 0 0 0 0 0 0 0 0 0 0 127 0" result="hardAlpha"/>
<feOffset dx="3" dy="9"/>
<feGaussianBlur stdDeviation="4.5"/>
<feColorMatrix type="matrix" values="0 0 0 0 0.439216 0 0 0 0 0.439216 0 0 0 0 0.439216 0 0 0 0.09 0"/>
<feBlend mode="normal" in2="effect1_dropShadow_501_313" result="effect2_dropShadow_501_313"/>
<feColorMatrix in="SourceAlpha" type="matrix" values="0 0 0 0 0 0 0 0 0 0 0 0 0 0 0 0 0 0 127 0" result="hardAlpha"/>
<feOffset dx="7" dy="20"/>
<feGaussianBlur stdDeviation="6.5"/>
<feColorMatrix type="matrix" values="0 0 0 0 0.439216 0 0 0 0 0.439216 0 0 0 0 0.439216 0 0 0 0.05 0"/>
<feBlend mode="normal" in2="effect2_dropShadow_501_313" result="effect3_dropShadow_501_313"/>
<feColorMatrix in="SourceAlpha" type="matrix" values="0 0 0 0 0 0 0 0 0 0 0 0 0 0 0 0 0 0 127 0" result="hardAlpha"/>
<feOffset dx="12" dy="36"/>
<feGaussianBlur stdDeviation="7.5"/>
<feColorMatrix type="matrix" values="0 0 0 0 0.439216 0 0 0 0 0.439216 0 0 0 0 0.439216 0 0 0 0.01 0"/>
<feBlend mode="normal" in2="effect3_dropShadow_501_313" result="effect4_dropShadow_501_313"/>
<feColorMatrix in="SourceAlpha" type="matrix" values="0 0 0 0 0 0 0 0 0 0 0 0 0 0 0 0 0 0 127 0" result="hardAlpha"/>
<feOffset dx="-3" dy="-3"/>
<feGaussianBlur stdDeviation="6"/>
<feComposite in2="hardAlpha" operator="out"/>
<feColorMatrix type="matrix" values="0 0 0 0 0.403922 0 0 0 0 0.909804 0 0 0 0 0.976471 0 0 0 0.5 0"/>
<feBlend mode="normal" in2="effect4_dropShadow_501_313" result="effect5_dropShadow_501_313"/>
<feColorMatrix in="SourceAlpha" type="matrix" values="0 0 0 0 0 0 0 0 0 0 0 0 0 0 0 0 0 0 127 0" result="hardAlpha"/>
<feOffset dx="3" dy="3"/>
<feGaussianBlur stdDeviation="6"/>
<feComposite in2="hardAlpha" operator="out"/>
<feColorMatrix type="matrix" values="0 0 0 0 0.494118 0 0 0 0 0.133333 0 0 0 0 0.807843 0 0 0 0.35 0"/>
<feBlend mode="normal" in2="effect5_dropShadow_501_313" result="effect6_dropShadow_501_313"/>
<feBlend mode="normal" in="SourceGraphic" in2="effect6_dropShadow_501_313" result="shape"/>
</filter>
<filter id="filter6_i_501_313" x="254.627" y="143.855" width="72.7461" height="82.2891" filterUnits="userSpaceOnUse" color-interpolation-filters="sRGB">
<feFlood flood-opacity="0" result="BackgroundImageFix"/>
<feBlend mode="normal" in="SourceGraphic" in2="BackgroundImageFix" result="shape"/>
<feColorMatrix in="SourceAlpha" type="matrix" values="0 0 0 0 0 0 0 0 0 0 0 0 0 0 0 0 0 0 127 0" result="hardAlpha"/>
<feOffset dy="2"/>
<feGaussianBlur stdDeviation="4"/>
<feComposite in2="hardAlpha" operator="arithmetic" k2="-1" k3="1"/>
<feColorMatrix type="matrix" values="0 0 0 0 1 0 0 0 0 1 0 0 0 0 1 0 0 0 1 0"/>
<feBlend mode="normal" in2="shape" result="effect1_innerShadow_501_313"/>
</filter>
<filter id="filter7_i_501_313" x="254.627" y="1.85547" width="72.7461" height="82.2891" filterUnits="userSpaceOnUse" color-interpolation-filters="sRGB">
<feFlood flood-opacity="0" result="BackgroundImageFix"/>
<feBlend mode="normal" in="SourceGraphic" in2="BackgroundImageFix" result="shape"/>
<feColorMatrix in="SourceAlpha" type="matrix" values="0 0 0 0 0 0 0 0 0 0 0 0 0 0 0 0 0 0 127 0" result="hardAlpha"/>
<feOffset dy="2"/>
<feGaussianBlur stdDeviation="4"/>
<feComposite in2="hardAlpha" operator="arithmetic" k2="-1" k3="1"/>
<feColorMatrix type="matrix" values="0 0 0 0 1 0 0 0 0 1 0 0 0 0 1 0 0 0 1 0"/>
<feBlend mode="normal" in2="shape" result="effect1_innerShadow_501_313"/>
</filter>
<filter id="filter8_i_501_313" x="88.627" y="143.855" width="72.7461" height="82.2891" filterUnits="userSpaceOnUse" color-interpolation-filters="sRGB">
<feFlood flood-opacity="0" result="BackgroundImageFix"/>
<feBlend mode="normal" in="SourceGraphic" in2="BackgroundImageFix" result="shape"/>
<feColorMatrix in="SourceAlpha" type="matrix" values="0 0 0 0 0 0 0 0 0 0 0 0 0 0 0 0 0 0 127 0" result="hardAlpha"/>
<feOffset dy="2"/>
<feGaussianBlur stdDeviation="4"/>
<feComposite in2="hardAlpha" operator="arithmetic" k2="-1" k3="1"/>
<feColorMatrix type="matrix" values="0 0 0 0 1 0 0 0 0 1 0 0 0 0 1 0 0 0 1 0"/>
<feBlend mode="normal" in2="shape" result="effect1_innerShadow_501_313"/>
</filter>
<filter id="filter9_i_501_313" x="171.627" y="143.855" width="72.7461" height="82.2891" filterUnits="userSpaceOnUse" color-interpolation-filters="sRGB">
<feFlood flood-opacity="0" result="BackgroundImageFix"/>
<feBlend mode="normal" in="SourceGraphic" in2="BackgroundImageFix" result="shape"/>
<feColorMatrix in="SourceAlpha" type="matrix" values="0 0 0 0 0 0 0 0 0 0 0 0 0 0 0 0 0 0 127 0" result="hardAlpha"/>
<feOffset dy="2"/>
<feGaussianBlur stdDeviation="4"/>
<feComposite in2="hardAlpha" operator="arithmetic" k2="-1" k3="1"/>
<feColorMatrix type="matrix" values="0 0 0 0 1 0 0 0 0 1 0 0 0 0 1 0 0 0 1 0"/>
<feBlend mode="normal" in2="shape" result="effect1_innerShadow_501_313"/>
</filter>
<clipPath id="clip0_501_313">
<rect width="440" height="217" fill="white"/>
</clipPath>
</defs>
</svg>
