<svg width="1440" height="1510" viewBox="0 0 1440 1510" fill="none" xmlns="http://www.w3.org/2000/svg">
<g clip-path="url(#clip0_457_458)">
<g opacity="0.4" filter="url(#filter0_f_457_458)">
<path d="M918 705.405C857.901 695.961 795.699 691 732 691C218.375 691 -198 1013.35 -198 1411H174C174 1062.67 493.504 772.117 918 705.405Z" fill="#7E22CE"/>
</g>
<g opacity="0.4" filter="url(#filter1_f_457_458)">
<path d="M918 705.595C978.099 715.039 1040.3 720 1104 720C1617.62 720 2034 397.645 2034 0H1662C1662 348.33 1342.5 638.883 918 705.595Z" fill="#67E8F9"/>
</g>
<circle cx="720" cy="-529" r="592" stroke="url(#paint0_linear_457_458)" stroke-width="2"/>
<g opacity="0.1" clip-path="url(#clip1_457_458)">
<g opacity="0.7">
<path d="M1247.21 674.605L1440 724.496V721.834L1247.43 672H196.829L0 722.934V725.596L196.941 674.634L1247.21 674.605Z" fill="url(#paint1_linear_457_458)"/>
<path d="M1440 1507.37H0V1510.01H1440V1507.37Z" fill="url(#paint2_linear_457_458)"/>
<path d="M1440 1375.16H0V1377.79H1440V1375.16Z" fill="url(#paint3_linear_457_458)"/>
<path d="M1440 1274.63H0V1277.26H1440V1274.63Z" fill="url(#paint4_linear_457_458)"/>
<path d="M1440 1195.6H0V1198.24H1440V1195.6Z" fill="url(#paint5_linear_457_458)"/>
<path d="M1440 1131.86H0V1134.49H1440V1131.86Z" fill="url(#paint6_linear_457_458)"/>
<path d="M1440 1079.35H0V1081.99H1440V1079.35Z" fill="url(#paint7_linear_457_458)"/>
<path d="M1440 1035.35H0V1037.98H1440V1035.35Z" fill="url(#paint8_linear_457_458)"/>
<path d="M1440 997.935H0V1000.57H1440V997.935Z" fill="url(#paint9_linear_457_458)"/>
<path d="M1440 965.74H0V968.374H1440V965.74Z" fill="url(#paint10_linear_457_458)"/>
<path d="M1440 937.742H0V940.376H1440V937.742Z" fill="url(#paint11_linear_457_458)"/>
<path d="M1440 913.17H0V915.804H1440V913.17Z" fill="url(#paint12_linear_457_458)"/>
<path d="M1440 891.431H0V894.065H1440V891.431Z" fill="url(#paint13_linear_457_458)"/>
<path d="M1440 872.059H0V874.687H1440V872.059Z" fill="url(#paint14_linear_457_458)"/>
<path d="M1440 854.693H0V857.327H1440V854.693Z" fill="url(#paint15_linear_457_458)"/>
<path d="M1440 839.032H0V841.666H1440V839.032Z" fill="url(#paint16_linear_457_458)"/>
<path d="M1440 824.842H0V827.476H1440V824.842Z" fill="url(#paint17_linear_457_458)"/>
<path d="M1440 811.917H0V814.551H1440V811.917Z" fill="url(#paint18_linear_457_458)"/>
<path d="M1440 800.099H0V802.733H1440V800.099Z" fill="url(#paint19_linear_457_458)"/>
<path d="M1440 789.255H0V791.889H1440V789.255Z" fill="url(#paint20_linear_457_458)"/>
<path d="M1440 779.267H0V781.895H1440V779.267Z" fill="url(#paint21_linear_457_458)"/>
<path d="M1440 770.037H0V772.671H1440V770.037Z" fill="url(#paint22_linear_457_458)"/>
<path d="M1440 761.479H0V764.113H1440V761.479Z" fill="url(#paint23_linear_457_458)"/>
<path d="M1440 753.526H0V756.16H1440V753.526Z" fill="url(#paint24_linear_457_458)"/>
<path d="M1440 746.115H0V748.749H1440V746.115Z" fill="url(#paint25_linear_457_458)"/>
<path d="M1440 739.194H0V741.822H1440V739.194Z" fill="url(#paint26_linear_457_458)"/>
<path d="M1440 732.717H0V735.351H1440V732.717Z" fill="url(#paint27_linear_457_458)"/>
<path d="M1440 726.634H0V729.268H1440V726.634Z" fill="url(#paint28_linear_457_458)"/>
<path d="M1436.46 720.922H7.79492V723.556H1436.46V720.922Z" fill="url(#paint29_linear_457_458)"/>
<path d="M1415.66 715.54H28.5928V718.173H1415.66V715.54Z" fill="url(#paint30_linear_457_458)"/>
<path d="M1396.04 710.46H48.2158V713.094H1396.04V710.46Z" fill="url(#paint31_linear_457_458)"/>
<path d="M1377.5 705.66H66.7549V708.294H1377.5V705.66Z" fill="url(#paint32_linear_457_458)"/>
<path d="M1359.95 701.121H84.3037V703.755H1359.95V701.121Z" fill="url(#paint33_linear_457_458)"/>
<path d="M1343.32 696.817H100.938V699.451H1343.32V696.817Z" fill="url(#paint34_linear_457_458)"/>
<path d="M1327.53 692.729H116.726V695.363H1327.53V692.729Z" fill="url(#paint35_linear_457_458)"/>
<path d="M1312.53 688.847H131.732V691.481H1312.53V688.847Z" fill="url(#paint36_linear_457_458)"/>
<path d="M1298.25 685.153H146.01V687.787H1298.25V685.153Z" fill="url(#paint37_linear_457_458)"/>
<path d="M1284.64 681.629H159.614V684.263H1284.64V681.629Z" fill="url(#paint38_linear_457_458)"/>
<path d="M1271.67 678.271H172.591V680.905H1271.67V678.271Z" fill="url(#paint39_linear_457_458)"/>
<path d="M1259.27 675.067H184.984V677.701H1259.27V675.067Z" fill="url(#paint40_linear_457_458)"/>
<path d="M1440 730.648L1223.79 672.029L1223.32 674.6L1440 733.344V730.648Z" fill="url(#paint41_linear_457_458)"/>
<path d="M1440 740.38L1199.92 672.034L1199.43 674.6L1440 743.082V740.38Z" fill="url(#paint42_linear_457_458)"/>
<path d="M1440 751.132L1176.05 672.04L1175.54 674.594L1440 753.84V751.132Z" fill="url(#paint43_linear_457_458)"/>
<path d="M1440 763.076L1152.19 672.04L1151.65 674.588L1440 765.795V763.076Z" fill="url(#paint44_linear_457_458)"/>
<path d="M1440 776.428L1128.33 672.046L1127.76 674.583L1440 779.153V776.428Z" fill="url(#paint45_linear_457_458)"/>
<path d="M1440 791.445L1104.47 672.051L1103.86 674.577L1440 794.187V791.445Z" fill="url(#paint46_linear_457_458)"/>
<path d="M1440 808.468L1080.61 672.057L1079.97 674.571L1440 811.222V808.468Z" fill="url(#paint47_linear_457_458)"/>
<path d="M1440 827.921L1056.75 672.068L1056.07 674.565L1440 830.697V827.921Z" fill="url(#paint48_linear_457_458)"/>
<path d="M1440 850.366L1032.9 672.08L1032.17 674.554L1440 853.16V850.366Z" fill="url(#paint49_linear_457_458)"/>
<path d="M1440 876.552L1009.05 672.091L1008.27 674.543L1440 879.374V876.552Z" fill="url(#paint50_linear_457_458)"/>
<path d="M1440 907.497L985.2 672.103L984.357 674.526L1440 910.353V907.497Z" fill="url(#paint51_linear_457_458)"/>
<path d="M1440 944.629L961.357 672.125L960.445 674.509L1440 947.536V944.629Z" fill="url(#paint52_linear_457_458)"/>
<path d="M1440 990.01L937.521 672.148L936.527 674.486L1440 992.974V990.01Z" fill="url(#paint53_linear_457_458)"/>
<path d="M1440 1046.74L913.692 672.182L912.605 674.451L1440 1049.78V1046.74Z" fill="url(#paint54_linear_457_458)"/>
<path d="M1440 1119.66L889.869 672.222L888.674 674.412L1440 1122.82V1119.66Z" fill="url(#paint55_linear_457_458)"/>
<path d="M1440 1216.89L866.052 672.279L864.732 674.355L1440 1220.22V1216.89Z" fill="url(#paint56_linear_457_458)"/>
<path d="M1440 1352.99L842.248 672.354L840.78 674.281L1440 1356.59V1352.99Z" fill="url(#paint57_linear_457_458)"/>
<path d="M1403.73 1509.54L816.822 674.172L818.455 672.462L1405.37 1507.83L1403.73 1509.54Z" fill="url(#paint58_linear_457_458)"/>
<path d="M1233.04 1509.4L792.854 674.03L794.665 672.604L1234.85 1507.98L1233.04 1509.4Z" fill="url(#paint59_linear_457_458)"/>
<path d="M1062.35 1509.21L768.894 673.836L770.872 672.798L1064.33 1508.17L1062.35 1509.21Z" fill="url(#paint60_linear_457_458)"/>
<path d="M891.682 1508.96L744.952 673.591L747.059 673.043L893.786 1508.41L891.682 1508.96Z" fill="url(#paint61_linear_457_458)"/>
<path d="M723.203 673.317H721.05V1508.69H723.203V673.317Z" fill="url(#paint62_linear_457_458)"/>
<path d="M552.577 1508.96L550.471 1508.41L697.201 673.043L699.304 673.591L552.577 1508.96Z" fill="url(#paint63_linear_457_458)"/>
<path d="M381.908 1509.21L379.927 1508.17L673.384 672.798L675.366 673.836L381.908 1509.21Z" fill="url(#paint64_linear_457_458)"/>
<path d="M211.218 1509.4L209.407 1507.98L649.591 672.604L651.402 674.03L211.218 1509.4Z" fill="url(#paint65_linear_457_458)"/>
<path d="M40.5257 1509.54L38.8896 1507.83L625.801 672.462L627.437 674.172L40.5257 1509.54Z" fill="url(#paint66_linear_457_458)"/>
<path d="M0 1361.44L603.476 674.281L602.008 672.354L0 1357.84V1361.44Z" fill="url(#paint67_linear_457_458)"/>
<path d="M0 1224.26L579.528 674.355L578.204 672.279L0 1220.93V1224.26Z" fill="url(#paint68_linear_457_458)"/>
<path d="M0 1126.28L555.586 674.412L554.391 672.222L0 1123.13V1126.28Z" fill="url(#paint69_linear_457_458)"/>
<path d="M0 1052.81L531.651 674.451L530.568 672.182L0 1049.77V1052.81Z" fill="url(#paint70_linear_457_458)"/>
<path d="M0 995.671L507.729 674.486L506.738 672.148L0 992.707V995.671Z" fill="url(#paint71_linear_457_458)"/>
<path d="M0 949.959L483.811 674.509L482.902 672.125L0 947.057V949.959Z" fill="url(#paint72_linear_457_458)"/>
<path d="M0 912.56L459.899 674.526L459.06 672.103L0 909.703V912.56Z" fill="url(#paint73_linear_457_458)"/>
<path d="M0 881.398L435.994 674.543L435.21 672.092L0 878.576V881.398Z" fill="url(#paint74_linear_457_458)"/>
<path d="M0 855.03L412.088 674.555L411.361 672.08L0 852.231V855.03Z" fill="url(#paint75_linear_457_458)"/>
<path d="M0 832.431L388.186 674.566L387.505 672.069L0 829.654V832.431Z" fill="url(#paint76_linear_457_458)"/>
<path d="M0 812.841L364.291 674.572L363.652 672.057L0 810.088V812.841Z" fill="url(#paint77_linear_457_458)"/>
<path d="M0 795.704L340.392 674.577L339.79 672.052L0 792.961V795.704Z" fill="url(#paint78_linear_457_458)"/>
<path d="M0 780.584L316.5 674.583L315.931 672.046L0 777.853V780.584Z" fill="url(#paint79_linear_457_458)"/>
<path d="M0 767.141L292.608 674.588L292.068 672.04L0 764.421V767.141Z" fill="url(#paint80_linear_457_458)"/>
<path d="M0 755.111L268.716 674.594L268.202 672.04L0 752.403V755.111Z" fill="url(#paint81_linear_457_458)"/>
<path d="M0 744.291L244.83 674.6L244.34 672.034L0 741.588V744.291Z" fill="url(#paint82_linear_457_458)"/>
<path d="M0 734.502L220.941 674.6L220.474 672.029L0 731.805V734.502Z" fill="url(#paint83_linear_457_458)"/>
</g>
</g>
</g>
<defs>
<filter id="filter0_f_457_458" x="-448" y="441" width="1616" height="1220" filterUnits="userSpaceOnUse" color-interpolation-filters="sRGB">
<feFlood flood-opacity="0" result="BackgroundImageFix"/>
<feBlend mode="normal" in="SourceGraphic" in2="BackgroundImageFix" result="shape"/>
<feGaussianBlur stdDeviation="125" result="effect1_foregroundBlur_457_458"/>
</filter>
<filter id="filter1_f_457_458" x="668" y="-250" width="1616" height="1220" filterUnits="userSpaceOnUse" color-interpolation-filters="sRGB">
<feFlood flood-opacity="0" result="BackgroundImageFix"/>
<feBlend mode="normal" in="SourceGraphic" in2="BackgroundImageFix" result="shape"/>
<feGaussianBlur stdDeviation="125" result="effect1_foregroundBlur_457_458"/>
</filter>
<linearGradient id="paint0_linear_457_458" x1="1313" y1="-529" x2="127" y2="-529" gradientUnits="userSpaceOnUse">
<stop stop-color="#E5E5E5"/>
<stop offset="0.15" stop-color="#E5E5E5" stop-opacity="0"/>
<stop offset="0.85" stop-color="#E5E5E5" stop-opacity="0"/>
<stop offset="1" stop-color="#E5E5E5"/>
</linearGradient>
<linearGradient id="paint1_linear_457_458" x1="720" y1="667.724" x2="720" y2="1306.32" gradientUnits="userSpaceOnUse">
<stop offset="0.19" stop-color="white"/>
<stop offset="0.68" stop-color="#858585"/>
<stop offset="1" stop-color="white"/>
</linearGradient>
<linearGradient id="paint2_linear_457_458" x1="-1.06665e-05" y1="667.748" x2="0.98737" y2="1306.32" gradientUnits="userSpaceOnUse">
<stop offset="0.19" stop-color="white"/>
<stop offset="0.68" stop-color="#858585"/>
<stop offset="1" stop-color="white"/>
</linearGradient>
<linearGradient id="paint3_linear_457_458" x1="-4.33327e-06" y1="667.656" x2="0.987377" y2="1306.31" gradientUnits="userSpaceOnUse">
<stop offset="0.19" stop-color="white"/>
<stop offset="0.68" stop-color="#858585"/>
<stop offset="1" stop-color="white"/>
</linearGradient>
<linearGradient id="paint4_linear_457_458" x1="-2.45073e-06" y1="667.685" x2="0.987378" y2="1306.31" gradientUnits="userSpaceOnUse">
<stop offset="0.19" stop-color="white"/>
<stop offset="0.68" stop-color="#858585"/>
<stop offset="1" stop-color="white"/>
</linearGradient>
<linearGradient id="paint5_linear_457_458" x1="1.00708e-05" y1="667.73" x2="0.987391" y2="1306.31" gradientUnits="userSpaceOnUse">
<stop offset="0.19" stop-color="white"/>
<stop offset="0.68" stop-color="#858585"/>
<stop offset="1" stop-color="white"/>
</linearGradient>
<linearGradient id="paint6_linear_457_458" x1="6.56293e-06" y1="667.742" x2="0.987387" y2="1306.31" gradientUnits="userSpaceOnUse">
<stop offset="0.19" stop-color="white"/>
<stop offset="0.68" stop-color="#858585"/>
<stop offset="1" stop-color="white"/>
</linearGradient>
<linearGradient id="paint7_linear_457_458" x1="-1.99436e-07" y1="667.736" x2="0.987381" y2="1306.31" gradientUnits="userSpaceOnUse">
<stop offset="0.19" stop-color="white"/>
<stop offset="0.68" stop-color="#858585"/>
<stop offset="1" stop-color="white"/>
</linearGradient>
<linearGradient id="paint8_linear_457_458" x1="-1.06371e-05" y1="667.679" x2="0.98737" y2="1306.35" gradientUnits="userSpaceOnUse">
<stop offset="0.19" stop-color="white"/>
<stop offset="0.68" stop-color="#858585"/>
<stop offset="1" stop-color="white"/>
</linearGradient>
<linearGradient id="paint9_linear_457_458" x1="-8.38358e-06" y1="667.736" x2="0.987372" y2="1306.3" gradientUnits="userSpaceOnUse">
<stop offset="0.19" stop-color="white"/>
<stop offset="0.68" stop-color="#858585"/>
<stop offset="1" stop-color="white"/>
</linearGradient>
<linearGradient id="paint10_linear_457_458" x1="-4.55375e-06" y1="667.736" x2="0.987376" y2="1306.3" gradientUnits="userSpaceOnUse">
<stop offset="0.19" stop-color="white"/>
<stop offset="0.68" stop-color="#858585"/>
<stop offset="1" stop-color="white"/>
</linearGradient>
<linearGradient id="paint11_linear_457_458" x1="-6.0108e-06" y1="667.724" x2="0.987375" y2="1306.31" gradientUnits="userSpaceOnUse">
<stop offset="0.19" stop-color="white"/>
<stop offset="0.68" stop-color="#858585"/>
<stop offset="1" stop-color="white"/>
</linearGradient>
<linearGradient id="paint12_linear_457_458" x1="-2.47766e-06" y1="667.729" x2="0.987391" y2="1306.3" gradientUnits="userSpaceOnUse">
<stop offset="0.19" stop-color="white"/>
<stop offset="0.68" stop-color="#858585"/>
<stop offset="1" stop-color="white"/>
</linearGradient>
<linearGradient id="paint13_linear_457_458" x1="-4.5922e-06" y1="667.73" x2="0.987376" y2="1306.3" gradientUnits="userSpaceOnUse">
<stop offset="0.19" stop-color="white"/>
<stop offset="0.68" stop-color="#858585"/>
<stop offset="1" stop-color="white"/>
</linearGradient>
<linearGradient id="paint14_linear_457_458" x1="-2.34936e-07" y1="667.736" x2="0.987376" y2="1306.28" gradientUnits="userSpaceOnUse">
<stop offset="0.19" stop-color="white"/>
<stop offset="0.68" stop-color="#858585"/>
<stop offset="1" stop-color="white"/>
</linearGradient>
<linearGradient id="paint15_linear_457_458" x1="-1.02707e-05" y1="667.73" x2="0.987371" y2="1306.3" gradientUnits="userSpaceOnUse">
<stop offset="0.19" stop-color="white"/>
<stop offset="0.68" stop-color="#858585"/>
<stop offset="1" stop-color="white"/>
</linearGradient>
<linearGradient id="paint16_linear_457_458" x1="9.53222e-06" y1="667.702" x2="0.98739" y2="1306.37" gradientUnits="userSpaceOnUse">
<stop offset="0.19" stop-color="white"/>
<stop offset="0.68" stop-color="#858585"/>
<stop offset="1" stop-color="white"/>
</linearGradient>
<linearGradient id="paint17_linear_457_458" x1="-2.54039e-07" y1="667.713" x2="0.98738" y2="1306.34" gradientUnits="userSpaceOnUse">
<stop offset="0.19" stop-color="white"/>
<stop offset="0.68" stop-color="#858585"/>
<stop offset="1" stop-color="white"/>
</linearGradient>
<linearGradient id="paint18_linear_457_458" x1="-3.7024e-06" y1="667.73" x2="0.987377" y2="1306.3" gradientUnits="userSpaceOnUse">
<stop offset="0.19" stop-color="white"/>
<stop offset="0.68" stop-color="#858585"/>
<stop offset="1" stop-color="white"/>
</linearGradient>
<linearGradient id="paint19_linear_457_458" x1="3.12582e-06" y1="667.724" x2="0.987384" y2="1306.31" gradientUnits="userSpaceOnUse">
<stop offset="0.19" stop-color="white"/>
<stop offset="0.68" stop-color="#858585"/>
<stop offset="1" stop-color="white"/>
</linearGradient>
<linearGradient id="paint20_linear_457_458" x1="8.98463e-06" y1="667.73" x2="0.98739" y2="1306.3" gradientUnits="userSpaceOnUse">
<stop offset="0.19" stop-color="white"/>
<stop offset="0.68" stop-color="#858585"/>
<stop offset="1" stop-color="white"/>
</linearGradient>
<linearGradient id="paint21_linear_457_458" x1="-9.58903e-06" y1="667.73" x2="0.987373" y2="1306.28" gradientUnits="userSpaceOnUse">
<stop offset="0.19" stop-color="white"/>
<stop offset="0.68" stop-color="#858585"/>
<stop offset="1" stop-color="white"/>
</linearGradient>
<linearGradient id="paint22_linear_457_458" x1="9.98946e-06" y1="667.713" x2="0.987391" y2="1306.36" gradientUnits="userSpaceOnUse">
<stop offset="0.19" stop-color="white"/>
<stop offset="0.68" stop-color="#858585"/>
<stop offset="1" stop-color="white"/>
</linearGradient>
<linearGradient id="paint23_linear_457_458" x1="-1.27912e-06" y1="667.73" x2="0.987386" y2="1306.3" gradientUnits="userSpaceOnUse">
<stop offset="0.19" stop-color="white"/>
<stop offset="0.68" stop-color="#858585"/>
<stop offset="1" stop-color="white"/>
</linearGradient>
<linearGradient id="paint24_linear_457_458" x1="1.08856e-05" y1="667.73" x2="0.987392" y2="1306.3" gradientUnits="userSpaceOnUse">
<stop offset="0.19" stop-color="white"/>
<stop offset="0.68" stop-color="#858585"/>
<stop offset="1" stop-color="white"/>
</linearGradient>
<linearGradient id="paint25_linear_457_458" x1="6.79932e-06" y1="667.724" x2="0.987388" y2="1306.31" gradientUnits="userSpaceOnUse">
<stop offset="0.19" stop-color="white"/>
<stop offset="0.68" stop-color="#858585"/>
<stop offset="1" stop-color="white"/>
</linearGradient>
<linearGradient id="paint26_linear_457_458" x1="-8.72202e-06" y1="667.73" x2="0.987374" y2="1306.28" gradientUnits="userSpaceOnUse">
<stop offset="0.19" stop-color="white"/>
<stop offset="0.68" stop-color="#858585"/>
<stop offset="1" stop-color="white"/>
</linearGradient>
<linearGradient id="paint27_linear_457_458" x1="-1.09052e-05" y1="667.724" x2="0.987373" y2="1306.3" gradientUnits="userSpaceOnUse">
<stop offset="0.19" stop-color="white"/>
<stop offset="0.68" stop-color="#858585"/>
<stop offset="1" stop-color="white"/>
</linearGradient>
<linearGradient id="paint28_linear_457_458" x1="4.20581e-06" y1="667.724" x2="0.987385" y2="1306.3" gradientUnits="userSpaceOnUse">
<stop offset="0.19" stop-color="white"/>
<stop offset="0.68" stop-color="#858585"/>
<stop offset="1" stop-color="white"/>
</linearGradient>
<linearGradient id="paint29_linear_457_458" x1="722.13" y1="667.719" x2="722.13" y2="1306.4" gradientUnits="userSpaceOnUse">
<stop offset="0.19" stop-color="white"/>
<stop offset="0.68" stop-color="#858585"/>
<stop offset="1" stop-color="white"/>
</linearGradient>
<linearGradient id="paint30_linear_457_458" x1="722.13" y1="667.724" x2="722.13" y2="1306.31" gradientUnits="userSpaceOnUse">
<stop offset="0.19" stop-color="white"/>
<stop offset="0.68" stop-color="#858585"/>
<stop offset="1" stop-color="white"/>
</linearGradient>
<linearGradient id="paint31_linear_457_458" x1="722.13" y1="667.724" x2="722.13" y2="1306.31" gradientUnits="userSpaceOnUse">
<stop offset="0.19" stop-color="white"/>
<stop offset="0.68" stop-color="#858585"/>
<stop offset="1" stop-color="white"/>
</linearGradient>
<linearGradient id="paint32_linear_457_458" x1="722.13" y1="667.724" x2="722.13" y2="1306.31" gradientUnits="userSpaceOnUse">
<stop offset="0.19" stop-color="white"/>
<stop offset="0.68" stop-color="#858585"/>
<stop offset="1" stop-color="white"/>
</linearGradient>
<linearGradient id="paint33_linear_457_458" x1="722.13" y1="667.724" x2="722.13" y2="1306.31" gradientUnits="userSpaceOnUse">
<stop offset="0.19" stop-color="white"/>
<stop offset="0.68" stop-color="#858585"/>
<stop offset="1" stop-color="white"/>
</linearGradient>
<linearGradient id="paint34_linear_457_458" x1="722.13" y1="667.724" x2="722.13" y2="1306.31" gradientUnits="userSpaceOnUse">
<stop offset="0.19" stop-color="white"/>
<stop offset="0.68" stop-color="#858585"/>
<stop offset="1" stop-color="white"/>
</linearGradient>
<linearGradient id="paint35_linear_457_458" x1="722.13" y1="667.718" x2="722.13" y2="1306.39" gradientUnits="userSpaceOnUse">
<stop offset="0.19" stop-color="white"/>
<stop offset="0.68" stop-color="#858585"/>
<stop offset="1" stop-color="white"/>
</linearGradient>
<linearGradient id="paint36_linear_457_458" x1="722.13" y1="667.724" x2="722.13" y2="1306.31" gradientUnits="userSpaceOnUse">
<stop offset="0.19" stop-color="white"/>
<stop offset="0.68" stop-color="#858585"/>
<stop offset="1" stop-color="white"/>
</linearGradient>
<linearGradient id="paint37_linear_457_458" x1="722.13" y1="667.724" x2="722.13" y2="1306.31" gradientUnits="userSpaceOnUse">
<stop offset="0.19" stop-color="white"/>
<stop offset="0.68" stop-color="#858585"/>
<stop offset="1" stop-color="white"/>
</linearGradient>
<linearGradient id="paint38_linear_457_458" x1="722.13" y1="667.724" x2="722.13" y2="1306.32" gradientUnits="userSpaceOnUse">
<stop offset="0.19" stop-color="white"/>
<stop offset="0.68" stop-color="#858585"/>
<stop offset="1" stop-color="white"/>
</linearGradient>
<linearGradient id="paint39_linear_457_458" x1="722.13" y1="667.724" x2="722.13" y2="1306.4" gradientUnits="userSpaceOnUse">
<stop offset="0.19" stop-color="white"/>
<stop offset="0.68" stop-color="#858585"/>
<stop offset="1" stop-color="white"/>
</linearGradient>
<linearGradient id="paint40_linear_457_458" x1="722.13" y1="667.724" x2="722.13" y2="1306.31" gradientUnits="userSpaceOnUse">
<stop offset="0.19" stop-color="white"/>
<stop offset="0.68" stop-color="#858585"/>
<stop offset="1" stop-color="white"/>
</linearGradient>
<linearGradient id="paint41_linear_457_458" x1="1331.66" y1="667.724" x2="1331.66" y2="1306.32" gradientUnits="userSpaceOnUse">
<stop offset="0.19" stop-color="white"/>
<stop offset="0.68" stop-color="#858585"/>
<stop offset="1" stop-color="white"/>
</linearGradient>
<linearGradient id="paint42_linear_457_458" x1="1319.72" y1="667.724" x2="1319.72" y2="1306.32" gradientUnits="userSpaceOnUse">
<stop offset="0.19" stop-color="white"/>
<stop offset="0.68" stop-color="#858585"/>
<stop offset="1" stop-color="white"/>
</linearGradient>
<linearGradient id="paint43_linear_457_458" x1="1307.77" y1="667.724" x2="1307.77" y2="1306.31" gradientUnits="userSpaceOnUse">
<stop offset="0.19" stop-color="white"/>
<stop offset="0.68" stop-color="#858585"/>
<stop offset="1" stop-color="white"/>
</linearGradient>
<linearGradient id="paint44_linear_457_458" x1="1295.82" y1="667.724" x2="1295.82" y2="1306.32" gradientUnits="userSpaceOnUse">
<stop offset="0.19" stop-color="white"/>
<stop offset="0.68" stop-color="#858585"/>
<stop offset="1" stop-color="white"/>
</linearGradient>
<linearGradient id="paint45_linear_457_458" x1="1283.88" y1="667.724" x2="1283.88" y2="1306.32" gradientUnits="userSpaceOnUse">
<stop offset="0.19" stop-color="white"/>
<stop offset="0.68" stop-color="#858585"/>
<stop offset="1" stop-color="white"/>
</linearGradient>
<linearGradient id="paint46_linear_457_458" x1="1271.93" y1="667.724" x2="1271.93" y2="1306.32" gradientUnits="userSpaceOnUse">
<stop offset="0.19" stop-color="white"/>
<stop offset="0.68" stop-color="#858585"/>
<stop offset="1" stop-color="white"/>
</linearGradient>
<linearGradient id="paint47_linear_457_458" x1="1259.99" y1="667.724" x2="1259.99" y2="1306.32" gradientUnits="userSpaceOnUse">
<stop offset="0.19" stop-color="white"/>
<stop offset="0.68" stop-color="#858585"/>
<stop offset="1" stop-color="white"/>
</linearGradient>
<linearGradient id="paint48_linear_457_458" x1="1248.04" y1="667.724" x2="1248.04" y2="1306.32" gradientUnits="userSpaceOnUse">
<stop offset="0.19" stop-color="white"/>
<stop offset="0.68" stop-color="#858585"/>
<stop offset="1" stop-color="white"/>
</linearGradient>
<linearGradient id="paint49_linear_457_458" x1="1236.09" y1="667.724" x2="1236.09" y2="1306.32" gradientUnits="userSpaceOnUse">
<stop offset="0.19" stop-color="white"/>
<stop offset="0.68" stop-color="#858585"/>
<stop offset="1" stop-color="white"/>
</linearGradient>
<linearGradient id="paint50_linear_457_458" x1="1224.13" y1="667.724" x2="1224.13" y2="1306.32" gradientUnits="userSpaceOnUse">
<stop offset="0.19" stop-color="white"/>
<stop offset="0.68" stop-color="#858585"/>
<stop offset="1" stop-color="white"/>
</linearGradient>
<linearGradient id="paint51_linear_457_458" x1="1212.18" y1="667.724" x2="1212.18" y2="1306.32" gradientUnits="userSpaceOnUse">
<stop offset="0.19" stop-color="white"/>
<stop offset="0.68" stop-color="#858585"/>
<stop offset="1" stop-color="white"/>
</linearGradient>
<linearGradient id="paint52_linear_457_458" x1="1200.22" y1="667.724" x2="1200.22" y2="1306.32" gradientUnits="userSpaceOnUse">
<stop offset="0.19" stop-color="white"/>
<stop offset="0.68" stop-color="#858585"/>
<stop offset="1" stop-color="white"/>
</linearGradient>
<linearGradient id="paint53_linear_457_458" x1="1188.26" y1="667.724" x2="1188.26" y2="1306.32" gradientUnits="userSpaceOnUse">
<stop offset="0.19" stop-color="white"/>
<stop offset="0.68" stop-color="#858585"/>
<stop offset="1" stop-color="white"/>
</linearGradient>
<linearGradient id="paint54_linear_457_458" x1="1176.3" y1="667.724" x2="1176.3" y2="1306.32" gradientUnits="userSpaceOnUse">
<stop offset="0.19" stop-color="white"/>
<stop offset="0.68" stop-color="#858585"/>
<stop offset="1" stop-color="white"/>
</linearGradient>
<linearGradient id="paint55_linear_457_458" x1="1164.34" y1="667.724" x2="1164.34" y2="1306.32" gradientUnits="userSpaceOnUse">
<stop offset="0.19" stop-color="white"/>
<stop offset="0.68" stop-color="#858585"/>
<stop offset="1" stop-color="white"/>
</linearGradient>
<linearGradient id="paint56_linear_457_458" x1="1152.37" y1="667.724" x2="1152.37" y2="1306.32" gradientUnits="userSpaceOnUse">
<stop offset="0.19" stop-color="white"/>
<stop offset="0.68" stop-color="#858585"/>
<stop offset="1" stop-color="white"/>
</linearGradient>
<linearGradient id="paint57_linear_457_458" x1="1140.39" y1="667.724" x2="1140.39" y2="1306.32" gradientUnits="userSpaceOnUse">
<stop offset="0.19" stop-color="white"/>
<stop offset="0.68" stop-color="#858585"/>
<stop offset="1" stop-color="white"/>
</linearGradient>
<linearGradient id="paint58_linear_457_458" x1="1111.1" y1="667.724" x2="1111.1" y2="1306.32" gradientUnits="userSpaceOnUse">
<stop offset="0.19" stop-color="white"/>
<stop offset="0.68" stop-color="#858585"/>
<stop offset="1" stop-color="white"/>
</linearGradient>
<linearGradient id="paint59_linear_457_458" x1="1013.85" y1="667.724" x2="1013.85" y2="1306.32" gradientUnits="userSpaceOnUse">
<stop offset="0.19" stop-color="white"/>
<stop offset="0.68" stop-color="#858585"/>
<stop offset="1" stop-color="white"/>
</linearGradient>
<linearGradient id="paint60_linear_457_458" x1="916.611" y1="667.724" x2="916.611" y2="1306.32" gradientUnits="userSpaceOnUse">
<stop offset="0.19" stop-color="white"/>
<stop offset="0.68" stop-color="#858585"/>
<stop offset="1" stop-color="white"/>
</linearGradient>
<linearGradient id="paint61_linear_457_458" x1="819.371" y1="667.724" x2="819.371" y2="1306.32" gradientUnits="userSpaceOnUse">
<stop offset="0.19" stop-color="white"/>
<stop offset="0.68" stop-color="#858585"/>
<stop offset="1" stop-color="white"/>
</linearGradient>
<linearGradient id="paint62_linear_457_458" x1="722.13" y1="667.724" x2="722.13" y2="1306.32" gradientUnits="userSpaceOnUse">
<stop offset="0.19" stop-color="white"/>
<stop offset="0.68" stop-color="#858585"/>
<stop offset="1" stop-color="white"/>
</linearGradient>
<linearGradient id="paint63_linear_457_458" x1="624.889" y1="667.724" x2="624.889" y2="1306.32" gradientUnits="userSpaceOnUse">
<stop offset="0.19" stop-color="white"/>
<stop offset="0.68" stop-color="#858585"/>
<stop offset="1" stop-color="white"/>
</linearGradient>
<linearGradient id="paint64_linear_457_458" x1="527.645" y1="667.724" x2="527.645" y2="1306.32" gradientUnits="userSpaceOnUse">
<stop offset="0.19" stop-color="white"/>
<stop offset="0.68" stop-color="#858585"/>
<stop offset="1" stop-color="white"/>
</linearGradient>
<linearGradient id="paint65_linear_457_458" x1="430.405" y1="667.724" x2="430.405" y2="1306.32" gradientUnits="userSpaceOnUse">
<stop offset="0.19" stop-color="white"/>
<stop offset="0.68" stop-color="#858585"/>
<stop offset="1" stop-color="white"/>
</linearGradient>
<linearGradient id="paint66_linear_457_458" x1="333.163" y1="667.724" x2="333.163" y2="1306.32" gradientUnits="userSpaceOnUse">
<stop offset="0.19" stop-color="white"/>
<stop offset="0.68" stop-color="#858585"/>
<stop offset="1" stop-color="white"/>
</linearGradient>
<linearGradient id="paint67_linear_457_458" x1="301.739" y1="667.724" x2="301.739" y2="1306.32" gradientUnits="userSpaceOnUse">
<stop offset="0.19" stop-color="white"/>
<stop offset="0.68" stop-color="#858585"/>
<stop offset="1" stop-color="white"/>
</linearGradient>
<linearGradient id="paint68_linear_457_458" x1="289.764" y1="667.724" x2="289.764" y2="1306.32" gradientUnits="userSpaceOnUse">
<stop offset="0.19" stop-color="white"/>
<stop offset="0.68" stop-color="#858585"/>
<stop offset="1" stop-color="white"/>
</linearGradient>
<linearGradient id="paint69_linear_457_458" x1="277.791" y1="667.724" x2="277.791" y2="1306.32" gradientUnits="userSpaceOnUse">
<stop offset="0.19" stop-color="white"/>
<stop offset="0.68" stop-color="#858585"/>
<stop offset="1" stop-color="white"/>
</linearGradient>
<linearGradient id="paint70_linear_457_458" x1="265.826" y1="667.724" x2="265.826" y2="1306.32" gradientUnits="userSpaceOnUse">
<stop offset="0.19" stop-color="white"/>
<stop offset="0.68" stop-color="#858585"/>
<stop offset="1" stop-color="white"/>
</linearGradient>
<linearGradient id="paint71_linear_457_458" x1="253.863" y1="667.724" x2="253.863" y2="1306.32" gradientUnits="userSpaceOnUse">
<stop offset="0.19" stop-color="white"/>
<stop offset="0.68" stop-color="#858585"/>
<stop offset="1" stop-color="white"/>
</linearGradient>
<linearGradient id="paint72_linear_457_458" x1="241.907" y1="667.724" x2="241.907" y2="1306.32" gradientUnits="userSpaceOnUse">
<stop offset="0.19" stop-color="white"/>
<stop offset="0.68" stop-color="#858585"/>
<stop offset="1" stop-color="white"/>
</linearGradient>
<linearGradient id="paint73_linear_457_458" x1="229.951" y1="667.724" x2="229.951" y2="1306.32" gradientUnits="userSpaceOnUse">
<stop offset="0.19" stop-color="white"/>
<stop offset="0.68" stop-color="#858585"/>
<stop offset="1" stop-color="white"/>
</linearGradient>
<linearGradient id="paint74_linear_457_458" x1="217.995" y1="667.724" x2="217.995" y2="1306.32" gradientUnits="userSpaceOnUse">
<stop offset="0.19" stop-color="white"/>
<stop offset="0.68" stop-color="#858585"/>
<stop offset="1" stop-color="white"/>
</linearGradient>
<linearGradient id="paint75_linear_457_458" x1="206.043" y1="667.725" x2="206.043" y2="1306.32" gradientUnits="userSpaceOnUse">
<stop offset="0.19" stop-color="white"/>
<stop offset="0.68" stop-color="#858585"/>
<stop offset="1" stop-color="white"/>
</linearGradient>
<linearGradient id="paint76_linear_457_458" x1="194.093" y1="667.725" x2="194.093" y2="1306.32" gradientUnits="userSpaceOnUse">
<stop offset="0.19" stop-color="white"/>
<stop offset="0.68" stop-color="#858585"/>
<stop offset="1" stop-color="white"/>
</linearGradient>
<linearGradient id="paint77_linear_457_458" x1="182.144" y1="667.725" x2="182.144" y2="1306.32" gradientUnits="userSpaceOnUse">
<stop offset="0.19" stop-color="white"/>
<stop offset="0.68" stop-color="#858585"/>
<stop offset="1" stop-color="white"/>
</linearGradient>
<linearGradient id="paint78_linear_457_458" x1="170.198" y1="667.724" x2="170.198" y2="1306.32" gradientUnits="userSpaceOnUse">
<stop offset="0.19" stop-color="white"/>
<stop offset="0.68" stop-color="#858585"/>
<stop offset="1" stop-color="white"/>
</linearGradient>
<linearGradient id="paint79_linear_457_458" x1="158.252" y1="667.724" x2="158.252" y2="1306.32" gradientUnits="userSpaceOnUse">
<stop offset="0.19" stop-color="white"/>
<stop offset="0.68" stop-color="#858585"/>
<stop offset="1" stop-color="white"/>
</linearGradient>
<linearGradient id="paint80_linear_457_458" x1="146.306" y1="667.724" x2="146.306" y2="1306.32" gradientUnits="userSpaceOnUse">
<stop offset="0.19" stop-color="white"/>
<stop offset="0.68" stop-color="#858585"/>
<stop offset="1" stop-color="white"/>
</linearGradient>
<linearGradient id="paint81_linear_457_458" x1="134.36" y1="667.724" x2="134.36" y2="1306.32" gradientUnits="userSpaceOnUse">
<stop offset="0.19" stop-color="white"/>
<stop offset="0.68" stop-color="#858585"/>
<stop offset="1" stop-color="white"/>
</linearGradient>
<linearGradient id="paint82_linear_457_458" x1="122.413" y1="667.724" x2="122.413" y2="1306.32" gradientUnits="userSpaceOnUse">
<stop offset="0.19" stop-color="white"/>
<stop offset="0.68" stop-color="#858585"/>
<stop offset="1" stop-color="white"/>
</linearGradient>
<linearGradient id="paint83_linear_457_458" x1="110.471" y1="667.724" x2="110.471" y2="1306.32" gradientUnits="userSpaceOnUse">
<stop offset="0.19" stop-color="white"/>
<stop offset="0.68" stop-color="#858585"/>
<stop offset="1" stop-color="white"/>
</linearGradient>
<clipPath id="clip0_457_458">
<rect width="1440" height="1510" fill="white"/>
</clipPath>
<clipPath id="clip1_457_458">
<rect width="1440" height="838" fill="white" transform="translate(0 672)"/>
</clipPath>
</defs>
</svg>
