<svg width="114" height="148" viewBox="0 0 114 148" fill="none" xmlns="http://www.w3.org/2000/svg">
<g filter="url(#filter0_dddd_328_394)">
<rect x="19" y="4" width="76" height="76" rx="38" fill="url(#paint0_linear_328_394)"/>
<rect x="19.25" y="4.25" width="75.5" height="75.5" rx="37.75" stroke="url(#paint1_linear_328_394)" stroke-width="0.5"/>
<rect x="23" y="8" width="68" height="68" rx="34" fill="url(#paint2_linear_328_394)"/>
<g filter="url(#filter1_dd_328_394)">
<g filter="url(#filter2_dddd_328_394)">
<path d="M58.375 49.1867H59.5667C60.7583 49.1867 61.7483 48.1233 61.7483 46.84C61.7483 45.245 61.18 44.9333 60.245 44.6033L58.3933 43.9617V49.1867H58.375Z" fill="url(#paint3_linear_328_394)"/>
<path d="M56.945 23.4833C46.825 23.52 38.63 31.7516 38.6666 41.8716C38.7033 51.9916 46.935 60.1866 57.055 60.15C67.175 60.1133 75.37 51.8816 75.3333 41.7616C75.2966 31.6416 67.065 23.465 56.945 23.4833ZM61.1433 42C62.5733 42.495 64.4983 43.5583 64.4983 46.84C64.4983 49.6633 62.28 51.9366 59.5666 51.9366H58.375V53C58.375 53.7516 57.7516 54.375 57 54.375C56.2483 54.375 55.625 53.7516 55.625 53V51.9366H54.965C51.9583 51.9366 49.52 49.4066 49.52 46.29C49.52 45.5383 50.1433 44.915 50.895 44.915C51.6466 44.915 52.27 45.5383 52.27 46.29C52.27 47.885 53.48 49.1866 54.965 49.1866H55.625V42.99L52.8566 42C51.4266 41.505 49.5016 40.4416 49.5016 37.16C49.5016 34.3366 51.72 32.0633 54.4333 32.0633H55.625V31C55.625 30.2483 56.2483 29.625 57 29.625C57.7516 29.625 58.375 30.2483 58.375 31V32.0633H59.035C62.0416 32.0633 64.48 34.5933 64.48 37.71C64.48 38.4616 63.8566 39.085 63.105 39.085C62.3533 39.085 61.73 38.4616 61.73 37.71C61.73 36.115 60.52 34.8133 59.035 34.8133H58.375V41.01L61.1433 42Z" fill="url(#paint4_linear_328_394)"/>
<path d="M52.27 37.1784C52.27 38.7734 52.8384 39.085 53.7734 39.415L55.625 40.0567V34.8134H54.4334C53.2417 34.8134 52.27 35.8767 52.27 37.1784Z" fill="url(#paint5_linear_328_394)"/>
</g>
</g>
</g>
<defs>
<filter id="filter0_dddd_328_394" x="0" y="0" width="114" height="148" filterUnits="userSpaceOnUse" color-interpolation-filters="sRGB">
<feFlood flood-opacity="0" result="BackgroundImageFix"/>
<feColorMatrix in="SourceAlpha" type="matrix" values="0 0 0 0 0 0 0 0 0 0 0 0 0 0 0 0 0 0 127 0" result="hardAlpha"/>
<feOffset dy="3"/>
<feGaussianBlur stdDeviation="3.5"/>
<feColorMatrix type="matrix" values="0 0 0 0 0 0 0 0 0 0 0 0 0 0 0 0 0 0 0.15 0"/>
<feBlend mode="normal" in2="BackgroundImageFix" result="effect1_dropShadow_328_394"/>
<feColorMatrix in="SourceAlpha" type="matrix" values="0 0 0 0 0 0 0 0 0 0 0 0 0 0 0 0 0 0 127 0" result="hardAlpha"/>
<feOffset dy="12"/>
<feGaussianBlur stdDeviation="6"/>
<feColorMatrix type="matrix" values="0 0 0 0 0 0 0 0 0 0 0 0 0 0 0 0 0 0 0.13 0"/>
<feBlend mode="normal" in2="effect1_dropShadow_328_394" result="effect2_dropShadow_328_394"/>
<feColorMatrix in="SourceAlpha" type="matrix" values="0 0 0 0 0 0 0 0 0 0 0 0 0 0 0 0 0 0 127 0" result="hardAlpha"/>
<feOffset dy="27"/>
<feGaussianBlur stdDeviation="8"/>
<feColorMatrix type="matrix" values="0 0 0 0 0 0 0 0 0 0 0 0 0 0 0 0 0 0 0.08 0"/>
<feBlend mode="normal" in2="effect2_dropShadow_328_394" result="effect3_dropShadow_328_394"/>
<feColorMatrix in="SourceAlpha" type="matrix" values="0 0 0 0 0 0 0 0 0 0 0 0 0 0 0 0 0 0 127 0" result="hardAlpha"/>
<feOffset dy="49"/>
<feGaussianBlur stdDeviation="9.5"/>
<feColorMatrix type="matrix" values="0 0 0 0 0 0 0 0 0 0 0 0 0 0 0 0 0 0 0.02 0"/>
<feBlend mode="normal" in2="effect3_dropShadow_328_394" result="effect4_dropShadow_328_394"/>
<feBlend mode="normal" in="SourceGraphic" in2="effect4_dropShadow_328_394" result="shape"/>
</filter>
<filter id="filter1_dd_328_394" x="15" y="2" width="84" height="84" filterUnits="userSpaceOnUse" color-interpolation-filters="sRGB">
<feFlood flood-opacity="0" result="BackgroundImageFix"/>
<feColorMatrix in="SourceAlpha" type="matrix" values="0 0 0 0 0 0 0 0 0 0 0 0 0 0 0 0 0 0 127 0" result="hardAlpha"/>
<feOffset dx="4" dy="6"/>
<feGaussianBlur stdDeviation="8"/>
<feComposite in2="hardAlpha" operator="out"/>
<feColorMatrix type="matrix" values="0 0 0 0 0.494118 0 0 0 0 0.133333 0 0 0 0 0.807843 0 0 0 0.5 0"/>
<feBlend mode="normal" in2="BackgroundImageFix" result="effect1_dropShadow_328_394"/>
<feColorMatrix in="SourceAlpha" type="matrix" values="0 0 0 0 0 0 0 0 0 0 0 0 0 0 0 0 0 0 127 0" result="hardAlpha"/>
<feOffset dx="-4" dy="-2"/>
<feGaussianBlur stdDeviation="8"/>
<feComposite in2="hardAlpha" operator="out"/>
<feColorMatrix type="matrix" values="0 0 0 0 0.403922 0 0 0 0 0.909804 0 0 0 0 0.976471 0 0 0 0.5 0"/>
<feBlend mode="normal" in2="effect1_dropShadow_328_394" result="effect2_dropShadow_328_394"/>
<feBlend mode="normal" in="SourceGraphic" in2="effect2_dropShadow_328_394" result="shape"/>
</filter>
<filter id="filter2_dddd_328_394" x="29.6665" y="21.4833" width="54.6669" height="70.6669" filterUnits="userSpaceOnUse" color-interpolation-filters="sRGB">
<feFlood flood-opacity="0" result="BackgroundImageFix"/>
<feColorMatrix in="SourceAlpha" type="matrix" values="0 0 0 0 0 0 0 0 0 0 0 0 0 0 0 0 0 0 127 0" result="hardAlpha"/>
<feOffset dy="1"/>
<feGaussianBlur stdDeviation="1.5"/>
<feColorMatrix type="matrix" values="0 0 0 0 0 0 0 0 0 0 0 0 0 0 0 0 0 0 0.15 0"/>
<feBlend mode="normal" in2="BackgroundImageFix" result="effect1_dropShadow_328_394"/>
<feColorMatrix in="SourceAlpha" type="matrix" values="0 0 0 0 0 0 0 0 0 0 0 0 0 0 0 0 0 0 127 0" result="hardAlpha"/>
<feOffset dy="6"/>
<feGaussianBlur stdDeviation="3"/>
<feColorMatrix type="matrix" values="0 0 0 0 0 0 0 0 0 0 0 0 0 0 0 0 0 0 0.13 0"/>
<feBlend mode="normal" in2="effect1_dropShadow_328_394" result="effect2_dropShadow_328_394"/>
<feColorMatrix in="SourceAlpha" type="matrix" values="0 0 0 0 0 0 0 0 0 0 0 0 0 0 0 0 0 0 127 0" result="hardAlpha"/>
<feOffset dy="13"/>
<feGaussianBlur stdDeviation="4"/>
<feColorMatrix type="matrix" values="0 0 0 0 0 0 0 0 0 0 0 0 0 0 0 0 0 0 0.08 0"/>
<feBlend mode="normal" in2="effect2_dropShadow_328_394" result="effect3_dropShadow_328_394"/>
<feColorMatrix in="SourceAlpha" type="matrix" values="0 0 0 0 0 0 0 0 0 0 0 0 0 0 0 0 0 0 127 0" result="hardAlpha"/>
<feOffset dy="23"/>
<feGaussianBlur stdDeviation="4.5"/>
<feColorMatrix type="matrix" values="0 0 0 0 0 0 0 0 0 0 0 0 0 0 0 0 0 0 0.02 0"/>
<feBlend mode="normal" in2="effect3_dropShadow_328_394" result="effect4_dropShadow_328_394"/>
<feBlend mode="normal" in="SourceGraphic" in2="effect4_dropShadow_328_394" result="shape"/>
</filter>
<linearGradient id="paint0_linear_328_394" x1="57" y1="4" x2="57" y2="80" gradientUnits="userSpaceOnUse">
<stop stop-color="#F4F4F4"/>
<stop offset="0.5" stop-color="#565656"/>
<stop offset="1" stop-color="#ACACAC"/>
</linearGradient>
<linearGradient id="paint1_linear_328_394" x1="57" y1="4" x2="57" y2="80" gradientUnits="userSpaceOnUse">
<stop stop-color="#C9C9C9"/>
<stop offset="0.5" stop-color="#686A69"/>
<stop offset="1" stop-color="#BABABA"/>
</linearGradient>
<linearGradient id="paint2_linear_328_394" x1="57" y1="8" x2="57" y2="76" gradientUnits="userSpaceOnUse">
<stop stop-color="#D5D8D8"/>
<stop offset="1" stop-color="#828282"/>
</linearGradient>
<linearGradient id="paint3_linear_328_394" x1="60.0617" y1="44.0092" x2="60.0617" y2="49.1867" gradientUnits="userSpaceOnUse">
<stop stop-color="white"/>
<stop offset="1" stop-color="#B4B4B4"/>
</linearGradient>
<linearGradient id="paint4_linear_328_394" x1="57" y1="23.8165" x2="57" y2="60.1501" gradientUnits="userSpaceOnUse">
<stop stop-color="white"/>
<stop offset="1" stop-color="#B4B4B4"/>
</linearGradient>
<linearGradient id="paint5_linear_328_394" x1="53.9475" y1="34.861" x2="53.9475" y2="40.0567" gradientUnits="userSpaceOnUse">
<stop stop-color="white"/>
<stop offset="1" stop-color="#B4B4B4"/>
</linearGradient>
</defs>
</svg>
