<svg width="145" height="29" viewBox="0 0 145 29" fill="none" xmlns="http://www.w3.org/2000/svg">
<g clip-path="url(#clip0_317_705)">
<path d="M0.474085 23.7612L14.22 0L16.2407 3.49233C16.8656 4.57277 16.8656 5.90423 16.2407 6.98466L3.50512 29C0.811339 29 -0.872805 26.0896 0.474085 23.7612Z" fill="url(#paint0_linear_317_705)"/>
<path d="M8.5376 25.5403L14.3375 15.5151H18.4951C19.385 15.5151 19.9405 16.4761 19.4962 17.2454L14.4261 26.0098C14.0598 26.6427 14.1653 27.4424 14.6833 27.9586L15.7269 29.0001H10.5399C8.76078 29.0001 7.64841 27.0782 8.53831 25.5403H8.5376Z" fill="url(#paint1_linear_317_705)"/>
<path d="M15.7262 29.0001L23.5277 15.5151H29.589L23.3406 26.316C23.0792 26.7678 23.1543 27.3391 23.5241 27.7082L24.8186 29.0001H15.7262Z" fill="url(#paint2_linear_317_705)"/>
<path d="M40.3719 9.72314V22.431H49.0116V24.3727H38.2003V9.72314H40.3719Z" fill="#111111"/>
<path d="M58.4661 19.068L58.4887 19.7454C58.4739 19.9413 58.4243 20.2305 58.3421 20.6144C58.2592 20.9984 58.1232 21.4155 57.9347 21.8667C57.7462 22.3178 57.4897 22.7548 57.1659 23.1762C56.8414 23.5976 56.4312 23.9441 55.9331 24.2149C55.4357 24.4857 54.8328 24.6215 54.1236 24.6215C53.6411 24.6215 53.1472 24.5536 52.6421 24.4179C52.1369 24.2828 51.6735 24.0572 51.2513 23.7405C50.829 23.4244 50.4896 22.9924 50.2331 22.4422C49.9766 21.8928 49.8484 21.2048 49.8484 20.3768V13.1079H52.0193V19.925C52.0193 20.6172 52.1284 21.1589 52.3473 21.5499C52.5656 21.9416 52.8787 22.2195 53.2861 22.385C53.6935 22.5511 54.1533 22.6332 54.6663 22.6332C55.4499 22.6332 56.1095 22.4408 56.6452 22.0576C57.1801 21.6736 57.5981 21.2077 57.9007 20.6582C58.2018 20.1088 58.3903 19.5785 58.4661 19.0666V19.068ZM60.5016 24.3726H58.3527V13.1086H60.5016V24.3726Z" fill="#111111"/>
<path d="M77.7129 21.9799L77.0795 22.2055V9.72314H79.273V24.3727H77.0795L66.8336 12.1612L67.467 11.9356V24.3727H65.2954V9.72314H67.467L77.7129 21.9799Z" fill="#111111"/>
<path d="M89.4962 20.7162H91.5544C91.4333 21.4537 91.147 22.1155 90.695 22.7024C90.243 23.2893 89.6471 23.7553 88.9081 24.1018C88.1691 24.4475 87.3026 24.6208 86.3071 24.6208C85.131 24.6208 84.0831 24.3726 83.1635 23.8755C82.2438 23.3791 81.5197 22.6939 80.9919 21.8214C80.464 20.9488 80.2004 19.9335 80.2004 18.7738C80.2004 17.6142 80.4562 16.5733 80.9699 15.693C81.4822 14.8127 82.1914 14.124 83.0954 13.6276C84.0002 13.1312 85.0325 12.8823 86.1938 12.8823C87.4153 12.8823 88.4405 13.1234 89.2702 13.605C90.0991 14.0865 90.7134 14.7978 91.113 15.7383C91.5126 16.6787 91.6749 17.8489 91.5998 19.2483H82.3487C82.4245 19.9257 82.6314 20.5274 82.9707 21.0542C83.3101 21.581 83.7622 21.9946 84.3275 22.2959C84.8929 22.5971 85.5455 22.747 86.2845 22.747C87.1134 22.747 87.8071 22.5589 88.3654 22.1827C88.923 21.8065 89.2999 21.3172 89.4962 20.7155V20.7162ZM86.2165 14.7349C85.2359 14.7349 84.4218 14.9944 83.7735 15.5134C83.1252 16.0324 82.6951 16.7204 82.4847 17.5788H89.4282C89.3679 16.661 89.0364 15.9575 88.4334 15.4689C87.8297 14.9803 87.0908 14.7356 86.2165 14.7356V14.7349Z" fill="#111111"/>
<path d="M91.1931 13.1086H98.4986V14.9824H91.1931V13.1086ZM93.7714 10.1289H95.9203V24.3719H93.7714V10.1289Z" fill="#111111"/>
<path d="M111.232 22.6122L110.644 22.5896L113.606 13.1089H115.959L112.045 24.3729H110.01L106.594 14.7345H107.205L103.744 24.3729H101.709L97.8418 13.1089H100.217L103.089 22.5896L102.501 22.6122L105.622 13.1089H108.178L111.231 22.6122H111.232Z" fill="#111111"/>
<path d="M121.184 24.6208C120.084 24.6208 119.072 24.3867 118.154 23.9208C117.234 23.4548 116.503 22.7845 115.96 21.9119C115.417 21.0393 115.146 19.9936 115.146 18.7738C115.146 17.5541 115.417 16.4828 115.96 15.6025C116.503 14.7222 117.234 14.049 118.154 13.5823C119.073 13.1164 120.084 12.8823 121.184 12.8823C122.284 12.8823 123.287 13.1164 124.192 13.5823C125.097 14.049 125.821 14.7222 126.364 15.6025C126.907 16.4828 127.178 17.5399 127.178 18.7738C127.178 20.0077 126.906 21.0393 126.364 21.9119C125.821 22.7845 125.097 23.4548 124.192 23.9208C123.287 24.3867 122.285 24.6208 121.184 24.6208ZM121.184 22.747C121.863 22.747 122.492 22.5928 123.073 22.2838C123.653 21.9755 124.121 21.5244 124.475 20.9297C124.829 20.3358 125.006 19.6174 125.006 18.7738C125.006 17.9303 124.829 17.1864 124.475 16.5847C124.121 15.9829 123.653 15.524 123.073 15.2072C122.492 14.8912 121.863 14.7335 121.184 14.7335C120.504 14.7335 119.872 14.8876 119.284 15.1959C118.696 15.5049 118.222 15.9596 117.859 16.5613C117.498 17.1638 117.317 17.9013 117.317 18.7738C117.317 19.6464 117.493 20.3351 117.848 20.9297C118.202 21.5244 118.674 21.9755 119.262 22.2838C119.85 22.5928 120.491 22.747 121.184 22.747Z" fill="#111111"/>
<path d="M127.743 13.1086H129.914V24.3726H127.743V13.1086ZM133.736 15.0269C132.952 15.0269 132.284 15.208 131.734 15.5693C131.184 15.9299 130.747 16.3747 130.422 16.9007C130.098 17.4275 129.883 17.9317 129.778 18.4132L129.756 17.1263C129.77 16.9757 129.812 16.7395 129.88 16.4157C129.948 16.0925 130.073 15.727 130.253 15.3204C130.434 14.9138 130.675 14.527 130.977 14.1579C131.278 13.7895 131.656 13.4848 132.108 13.2436C132.56 13.0032 133.103 12.8823 133.736 12.8823V15.0269Z" fill="#111111"/>
<path d="M134.279 8.59473H136.428V24.3728H134.279V8.59473ZM144.57 13.1088L138.599 18.7747L138.645 17.4207L145 24.3728H142.263L136.473 18.0754L141.562 13.1088H144.571H144.57Z" fill="#111111"/>
</g>
<defs>
<linearGradient id="paint0_linear_317_705" x1="34.1647" y1="41.9483" x2="-7.23732" y2="-1.84168" gradientUnits="userSpaceOnUse">
<stop stop-color="#7E22CE"/>
<stop offset="1" stop-color="#67E8F9"/>
</linearGradient>
<linearGradient id="paint1_linear_317_705" x1="33.5298" y1="42.5487" x2="-7.87227" y2="-1.24125" gradientUnits="userSpaceOnUse">
<stop stop-color="#7E22CE"/>
<stop offset="1" stop-color="#67E8F9"/>
</linearGradient>
<linearGradient id="paint2_linear_317_705" x1="37.9509" y1="38.3684" x2="-3.45114" y2="-5.42158" gradientUnits="userSpaceOnUse">
<stop stop-color="#7E22CE"/>
<stop offset="1" stop-color="#67E8F9"/>
</linearGradient>
<clipPath id="clip0_317_705">
<rect width="145" height="29" fill="white"/>
</clipPath>
</defs>
</svg>
