<svg width="72" height="72" viewBox="0 0 72 72" fill="none" xmlns="http://www.w3.org/2000/svg">
<g filter="url(#filter0_d_310_427)">
<rect x="4" y="2" width="64" height="64" rx="16" fill="#FAFAFA" shape-rendering="crispEdges"/>
<rect x="4.75" y="2.75" width="62.5" height="62.5" rx="15.25" stroke="white" stroke-width="1.5" shape-rendering="crispEdges"/>
<path d="M42.5816 15.2085C37.1366 15.2085 32.7183 19.6268 32.7183 25.0718C32.7183 30.5168 37.1366 34.9352 42.5816 34.9352C48.0266 34.9352 52.4449 30.5168 52.4449 25.0718C52.4449 19.6268 48.0266 15.2085 42.5816 15.2085Z" fill="#7E22CE"/>
<path opacity="0.4" d="M25.66 35.8882C22.305 35.8882 19.5551 38.6199 19.5551 41.9932C19.5551 45.3665 22.2867 48.0982 25.66 48.0982C29.015 48.0982 31.7651 45.3665 31.7651 41.9932C31.7651 38.6199 29.015 35.8882 25.66 35.8882Z" fill="#7E22CE"/>
<path opacity="0.4" d="M44.47 42.4702C41.6284 42.4702 39.3184 44.7802 39.3184 47.6219C39.3184 50.4635 41.6284 52.7736 44.47 52.7736C47.3117 52.7736 49.6217 50.4635 49.6217 47.6219C49.6217 44.7802 47.3117 42.4702 44.47 42.4702Z" fill="#7E22CE"/>
</g>
<defs>
<filter id="filter0_d_310_427" x="0" y="0" width="72" height="72" filterUnits="userSpaceOnUse" color-interpolation-filters="sRGB">
<feFlood flood-opacity="0" result="BackgroundImageFix"/>
<feColorMatrix in="SourceAlpha" type="matrix" values="0 0 0 0 0 0 0 0 0 0 0 0 0 0 0 0 0 0 127 0" result="hardAlpha"/>
<feOffset dy="2"/>
<feGaussianBlur stdDeviation="2"/>
<feComposite in2="hardAlpha" operator="out"/>
<feColorMatrix type="matrix" values="0 0 0 0 0.899038 0 0 0 0 0.899038 0 0 0 0 0.899038 0 0 0 0.25 0"/>
<feBlend mode="normal" in2="BackgroundImageFix" result="effect1_dropShadow_310_427"/>
<feBlend mode="normal" in="SourceGraphic" in2="effect1_dropShadow_310_427" result="shape"/>
</filter>
</defs>
</svg>
